<svg width="363.533544921875px" height="360.2px" xmlns="http://www.w3.org/2000/svg" viewBox="68.23322753906251 -105.1 363.533544921875 360.2" style="background: rgba(0, 0, 0, 0);" preserveAspectRatio="xMidYMid"><defs><linearGradient id="editing-gradient-gradient" x1="0" x2="1" y1="0.5" y2="0.5" gradientUnits="objectBoundingBox"><stop offset="0" stop-color="#f472b6"></stop><stop offset="1" stop-color="#3bbdf8"></stop></linearGradient></defs><g><g transform="translate(152.99798130989075, 155.10000228881836)"><path d="M56.60 9.20L56.60 9.20L56.60 9.20Q56.60 3.60 79.60-34.20L79.60-34.20L79.60-34.20Q63.20-34.20 57.80-32.80L57.80-32.80L57.80-32.80Q48.80-30.60 44.40-23.80L44.40-23.80L44.40-23.80Q42.80-21.60 41.70-21.40L41.70-21.40L41.70-21.40Q40.60-21.20 40.60-22.30L40.60-22.30L40.60-22.30Q40.60-23.40 41.40-24.20L41.40-24.20L41.40-24.20Q49-34.40 56.40-38.20L56.40-38.20L56.40-38.20Q63.80-42 79.80-42L79.80-42L79.80-42Q82.20-42 84.60-42L84.60-42L84.60-42Q96.80-60.60 118.80-97.20L118.80-97.20L118.80-97.20Q127-112.60 127-122.20L127-122.20L127-122.20Q127-137.60 108.20-137.80L108.20-137.80L108.20-137.80Q107-137.80 106-137.80L106-137.80L106-137.80Q80.40-137.80 59.40-125L59.40-125L59.40-125Q38.40-112.20 26.20-93.20L26.20-93.20L26.20-93.20Q14-74.20 14-59L14-59L14-59Q14-40.40 31.40-40.40L31.40-40.40L31.40-40.40Q45.20-40.40 55-52.60L55-52.60L55-52.60Q64.80-64.80 64.80-75.80L64.80-75.80L64.80-75.80Q64.80-82 61.60-86L61.60-86L61.60-86Q61.20-86.40 61.20-87L61.20-87L61.20-87Q61.20-88.40 62.80-88.40L62.80-88.40L62.80-88.40Q63.60-88.40 64-87.80L64-87.80L64-87.80Q68-82.60 68-75.40L68-75.40L68-75.40Q68-63.20 58-50.50L58-50.50L58-50.50Q48-37.80 37-36.40L37-36.40L37-36.40Q33.60-35.80 30.40-35.80L30.40-35.80L30.40-35.80Q17.60-35.80 10.60-44L10.60-44L10.60-44Q3.80-51.40 3.80-64L3.80-64L3.80-64Q3.80-69.20 5-74.60L5-74.60L5-74.60Q11-101.60 39.70-121.80L39.70-121.80L39.70-121.80Q68.40-142 104.20-142L104.20-142L104.20-142Q118-142 127.90-136.10L127.90-136.10L127.90-136.10Q137.80-130.20 137.80-119.60L137.80-119.60L137.80-119.60Q137.80-109 130.40-97.20L130.40-97.20L94.20-41.60L94.20-41.60Q100.60-41.40 117.10-39.70L117.10-39.70L117.10-39.70Q133.60-38 141.90-38L141.90-38L141.90-38Q150.20-38 153-38.20L153-38.20L160.60-50.80L160.60-50.80Q180-83.40 205.50-111.70L205.50-111.70L205.50-111.70Q231-140 250-146.80L250-146.80L250-146.80Q250.60-147 251.20-147L251.20-147L251.20-147Q252.60-147 252.60-145.40L252.60-145.40L252.60-145.40Q252.60-144.80 252-144.40L252-144.40L252-144.40Q239.20-137.20 215.30-109.50L215.30-109.50L215.30-109.50Q191.40-81.80 174-52.60L174-52.60L166.20-39.40L166.20-39.40Q175.40-40.60 179.40-44L179.40-44L179.40-44Q180.20-44.60 180.80-43.30L180.80-43.30L180.80-43.30Q181.40-42 180.60-41.40L180.60-41.40L180.60-41.40Q174.60-36.80 163.60-34.80L163.60-34.80L163.60-34.80Q149.60-8.80 149.60 1.80L149.60 1.80L149.60 1.80Q149.60 8.60 155.40 8.60L155.40 8.60L155.40 8.60Q159.40 8.60 164.70 5.90L164.70 5.90L164.70 5.90Q170 3.20 171.80 1.30L171.80 1.30L171.80 1.30Q173.60-0.60 174-0.60L174-0.60L174-0.60Q174.40-0.60 174.20 0.70L174.20 0.70L174.20 0.70Q174 2 173.40 2.80L173.40 2.80L173.40 2.80Q170 6 163.20 9.60L163.20 9.60L163.20 9.60Q156.40 13.20 152.20 13.20L152.20 13.20L152.20 13.20Q148 13.20 146 11.80L146 11.80L146 11.80Q139.60 7.60 139.60-2.80L139.60-2.80L139.60-2.80Q139.60-13.20 150.20-33.20L150.20-33.20L150.20-33.20Q142.80-32.60 136.40-32.60L136.40-32.60L136.40-32.60Q134.20-32.60 89.40-34L89.40-34L89.40-34Q75.20-11.60 66.60 6.80L66.60 6.80L66.60 6.80Q64 12.20 60.30 12.20L60.30 12.20L60.30 12.20Q56.60 12.20 56.60 9.20Z" fill="url(#editing-gradient-gradient)"></path></g></g><style>text {
  font-size: 64px;
  font-family: Arial Black;
  dominant-baseline: central;
  text-anchor: middle;
}</style></svg>